<svg xmlns="http://www.w3.org/2000/svg" xmlns:xlink="http://www.w3.org/1999/xlink" width="1080" zoomAndPan="magnify" viewBox="0 0 810 269.999989" height="360" preserveAspectRatio="xMidYMid meet" version="1.0"><defs><clipPath id="bac3889626"><path d="M 218 61 L 783.039062 61 L 783.039062 178 L 218 178 Z M 218 61 " clip-rule="nonzero"/></clipPath><clipPath id="00365dabec"><path d="M 30.257812 45.5 L 179 45.5 L 179 194 L 30.257812 194 Z M 30.257812 45.5 " clip-rule="nonzero"/></clipPath><clipPath id="ec1af2fe47"><path d="M 218 207 L 701 207 L 701 229.464844 L 218 229.464844 Z M 218 207 " clip-rule="nonzero"/></clipPath><clipPath id="9c5d57eab7"><path d="M 27 40.296875 L 185.589844 40.296875 L 185.589844 198.890625 L 27 198.890625 Z M 27 40.296875 " clip-rule="nonzero"/></clipPath><clipPath id="d323d08086"><path d="M 106.296875 40.296875 C 62.5 40.296875 27 75.800781 27 119.59375 C 27 163.386719 62.5 198.890625 106.296875 198.890625 C 150.089844 198.890625 185.589844 163.386719 185.589844 119.59375 C 185.589844 75.800781 150.089844 40.296875 106.296875 40.296875 " clip-rule="nonzero"/></clipPath><clipPath id="ed9043ab5b"><path d="M 31.40625 44.703125 L 181.539062 44.703125 L 181.539062 194.835938 L 31.40625 194.835938 Z M 31.40625 44.703125 " clip-rule="nonzero"/></clipPath></defs><rect x="-81" width="972" fill="#ffffff" y="-26.999999" height="323.999987" fill-opacity="1"/><rect x="-81" width="972" fill="#ffffff" y="-26.999999" height="323.999987" fill-opacity="1"/><rect x="-81" width="972" fill="#000000" y="-26.999999" height="323.999987" fill-opacity="1"/><g clip-path="url(#bac3889626)"><path fill="#ffffff" d="M 265.484375 177.910156 C 295.746094 177.910156 312.425781 159.707031 312.425781 131.375 L 312.425781 63.375 L 295.402344 63.375 L 295.402344 131.375 C 295.402344 150.265625 285.257812 161.769531 265.484375 161.769531 C 245.710938 161.769531 235.5625 150.265625 235.5625 131.375 L 235.5625 63.375 L 218.023438 63.375 L 218.023438 131.375 C 218.023438 159.882812 235.046875 177.910156 265.480469 177.910156 Z M 332.714844 175.679688 L 350.253906 175.679688 L 350.253906 135.496094 L 377.078125 135.496094 L 403.898438 175.679688 L 424.878906 175.679688 L 395.132812 133.949219 C 412.84375 129.488281 420.753906 116.261719 420.753906 99.433594 C 420.753906 78.65625 408.71875 63.375 381.035156 63.375 L 332.714844 63.375 Z M 350.253906 119.355469 L 350.253906 79.515625 L 381.203125 79.515625 C 397.367188 79.515625 403.039062 87.929688 403.039062 99.4375 C 403.039062 110.769531 397.539062 119.355469 381.203125 119.355469 Z M 437.773438 175.679688 L 454.796875 175.679688 L 454.796875 140.132812 L 518.074219 140.132812 L 518.074219 175.679688 L 535.613281 175.679688 L 535.613281 109.566406 C 535.613281 79.863281 518.246094 61.144531 486.433594 61.144531 C 454.96875 61.144531 437.773438 79.863281 437.773438 109.566406 Z M 454.796875 123.992188 L 454.796875 109.566406 C 454.796875 89.304688 465.457031 77.285156 486.433594 77.285156 C 507.414062 77.285156 518.074219 89.304688 518.074219 109.566406 L 518.074219 123.992188 Z M 553.496094 175.679688 L 571.035156 175.679688 L 571.035156 107.679688 C 571.035156 88.789062 581.351562 77.285156 600.953125 77.285156 C 620.726562 77.285156 631.042969 88.789062 631.042969 107.679688 L 631.042969 175.679688 L 648.582031 175.679688 L 648.582031 107.679688 C 648.582031 79.171875 631.558594 61.144531 600.953125 61.144531 C 570.519531 61.144531 553.496094 79.175781 553.496094 107.679688 Z M 723.207031 177.910156 C 758.285156 177.910156 783.042969 153.183594 783.042969 119.527344 C 783.042969 85.867188 758.28125 61.140625 723.207031 61.140625 C 688.128906 61.140625 663.367188 85.867188 663.367188 119.527344 C 663.367188 153.183594 688.128906 177.910156 723.207031 177.910156 Z M 723.207031 161.769531 C 698.273438 161.769531 681.078125 143.910156 681.078125 119.527344 C 681.078125 95.140625 698.273438 77.285156 723.207031 77.285156 C 748.136719 77.285156 765.332031 95.144531 765.332031 119.527344 C 765.332031 143.910156 748.140625 161.769531 723.207031 161.769531 Z M 723.207031 161.769531 " fill-opacity="1" fill-rule="nonzero"/></g><g clip-path="url(#00365dabec)"><path fill="#ffffff" d="M 104.359375 45.519531 C 125.046875 45.519531 143.75 53.988281 157.191406 67.636719 C 157.0625 73.632812 155.039062 80.90625 151.640625 88.84375 C 143.800781 107.152344 128.789062 128.410156 112.417969 146.070312 C 96.203125 163.558594 78.824219 177.398438 66.042969 181.105469 C 65.351562 181.308594 64.675781 181.476562 64.023438 181.609375 C 43.699219 168.414062 30.257812 145.539062 30.257812 119.527344 C 30.257812 78.652344 63.433594 45.519531 104.359375 45.519531 Z M 100.21875 65.1875 C 103.546875 63.53125 107.507812 63.226562 111.21875 64.074219 C 114.914062 64.914062 118.386719 66.910156 120.761719 69.859375 C 121.410156 70.664062 121.949219 71.5 122.371094 72.347656 C 123.574219 74.761719 123.898438 77.324219 123.394531 79.710938 C 122.890625 82.109375 121.5625 84.304688 119.476562 85.980469 C 118.773438 86.546875 117.984375 87.054688 117.121094 87.484375 C 113.792969 89.144531 109.832031 89.445312 106.121094 88.597656 C 102.425781 87.753906 98.949219 85.757812 96.574219 82.8125 C 95.925781 82.007812 95.390625 81.171875 94.96875 80.324219 C 93.761719 77.90625 93.441406 75.347656 93.941406 72.960938 C 94.445312 70.558594 95.773438 68.363281 97.859375 66.6875 C 98.566406 66.121094 99.351562 65.613281 100.21875 65.183594 Z M 110.355469 67.835938 C 107.492188 67.179688 104.460938 67.402344 101.945312 68.65625 C 101.324219 68.964844 100.765625 69.320312 100.28125 69.710938 C 98.910156 70.8125 98.042969 72.226562 97.722656 73.75 C 97.402344 75.285156 97.625 76.964844 98.441406 78.601562 C 98.746094 79.214844 99.132812 79.816406 99.601562 80.394531 C 101.414062 82.648438 104.105469 84.183594 106.984375 84.839844 C 109.847656 85.492188 112.875 85.269531 115.390625 84.019531 C 116.011719 83.707031 116.570312 83.351562 117.054688 82.960938 C 118.429688 81.859375 119.296875 80.445312 119.617188 78.921875 C 119.9375 77.386719 119.714844 75.703125 118.898438 74.074219 C 118.59375 73.460938 118.207031 72.855469 117.738281 72.277344 C 115.921875 70.023438 113.234375 68.488281 110.355469 67.832031 Z M 94.445312 58.023438 C 99.996094 55.261719 106.617188 54.757812 112.828125 56.175781 C 119.027344 57.589844 124.84375 60.929688 128.8125 65.855469 C 129.886719 67.183594 130.769531 68.566406 131.46875 69.96875 C 133.445312 73.925781 133.972656 78.097656 133.160156 81.980469 C 132.34375 85.871094 130.183594 89.4375 126.78125 92.171875 C 125.621094 93.105469 124.324219 93.9375 122.890625 94.648438 C 117.339844 97.410156 110.722656 97.914062 104.507812 96.496094 C 98.3125 95.082031 92.492188 91.742188 88.527344 86.820312 C 87.453125 85.484375 86.566406 84.105469 85.867188 82.707031 C 83.894531 78.746094 83.363281 74.574219 84.179688 70.695312 C 84.996094 66.804688 87.15625 63.238281 90.558594 60.503906 C 91.71875 59.574219 93.015625 58.738281 94.449219 58.027344 Z M 111.964844 59.9375 C 106.601562 58.710938 100.914062 59.132812 96.175781 61.492188 C 94.988281 62.085938 93.921875 62.769531 92.980469 63.523438 C 90.289062 65.683594 88.589844 68.472656 87.957031 71.484375 C 87.320312 74.511719 87.753906 77.808594 89.339844 80.980469 C 89.921875 82.148438 90.660156 83.296875 91.550781 84.402344 C 94.960938 88.632812 99.996094 91.507812 105.375 92.738281 C 110.734375 93.964844 116.421875 93.542969 121.160156 91.183594 C 122.347656 90.59375 123.417969 89.910156 124.359375 89.152344 C 127.046875 86.992188 128.746094 84.207031 129.378906 81.191406 C 130.015625 78.167969 129.582031 74.871094 127.996094 71.699219 C 127.414062 70.527344 126.675781 69.382812 125.785156 68.273438 C 122.375 64.042969 117.339844 61.167969 111.964844 59.941406 Z M 164.214844 75.898438 C 173.171875 88.132812 178.460938 103.210938 178.460938 119.527344 C 178.460938 160.402344 145.285156 193.535156 104.359375 193.535156 C 93.367188 193.535156 82.941406 191.144531 73.5625 186.855469 C 86.933594 181.082031 103.21875 167.742188 118.28125 151.492188 C 135.238281 133.199219 150.820312 111.101562 159.011719 91.980469 C 161.417969 86.355469 163.199219 80.941406 164.214844 75.898438 Z M 164.214844 75.898438 " fill-opacity="1" fill-rule="evenodd"/></g><g clip-path="url(#ec1af2fe47)"><path fill="#ffffff" d="M 218.027344 229.136719 L 218.027344 207.730469 L 229.722656 207.730469 C 231.519531 207.730469 233.019531 207.941406 234.226562 208.359375 C 235.429688 208.777344 236.339844 209.382812 236.949219 210.179688 C 237.5625 210.972656 237.867188 211.953125 237.867188 213.113281 C 237.867188 214.234375 237.492188 215.210938 236.734375 216.035156 C 235.980469 216.859375 234.878906 217.445312 233.429688 217.792969 L 233.644531 217.210938 C 234.5625 217.417969 235.429688 217.742188 236.246094 218.191406 C 237.0625 218.636719 237.726562 219.246094 238.238281 220.007812 C 238.746094 220.773438 239 221.714844 239 222.839844 C 239 224.082031 238.753906 225.113281 238.253906 225.925781 C 237.75 226.742188 237.085938 227.386719 236.261719 227.855469 C 235.433594 228.324219 234.519531 228.652344 233.523438 228.847656 C 232.523438 229.042969 231.519531 229.136719 230.523438 229.136719 Z M 221.335938 225.957031 L 230.644531 225.957031 C 231.625 225.957031 232.484375 225.847656 233.230469 225.621094 C 233.976562 225.398438 234.5625 225.046875 234.992188 224.566406 C 235.421875 224.085938 235.636719 223.492188 235.636719 222.777344 C 235.636719 221.960938 235.371094 221.328125 234.839844 220.878906 C 234.308594 220.433594 233.644531 220.113281 232.847656 219.917969 C 232.050781 219.722656 231.265625 219.625 230.492188 219.625 L 221.335938 219.625 Z M 221.335938 216.417969 L 230.335938 216.417969 C 231.070312 216.417969 231.753906 216.304688 232.386719 216.082031 C 233.019531 215.855469 233.523438 215.53125 233.902344 215.101562 C 234.28125 214.671875 234.472656 214.175781 234.472656 213.601562 C 234.472656 212.625 234.039062 211.929688 233.171875 211.523438 C 232.300781 211.117188 231.234375 210.910156 229.96875 210.910156 L 221.335938 210.910156 Z M 248.496094 229.136719 L 248.496094 207.730469 L 261.019531 207.730469 C 262.285156 207.730469 263.441406 208.019531 264.496094 208.601562 C 265.546875 209.183594 266.390625 209.976562 267.023438 210.972656 C 267.65625 211.972656 267.972656 213.085938 267.972656 214.308594 C 267.972656 215.59375 267.625 216.761719 266.929688 217.8125 C 266.238281 218.863281 265.316406 219.699219 264.175781 220.320312 C 263.03125 220.941406 261.777344 221.25 260.40625 221.25 L 251.800781 221.25 L 251.800781 229.140625 L 248.496094 229.140625 Z M 265.09375 229.136719 L 257.804688 219.472656 L 261.324219 218.710938 L 269.226562 229.167969 Z M 251.800781 218.070312 L 260.101562 218.070312 C 260.875 218.070312 261.59375 217.894531 262.257812 217.546875 C 262.921875 217.203125 263.453125 216.746094 263.851562 216.171875 C 264.25 215.601562 264.449219 214.980469 264.449219 214.308594 C 264.449219 213.675781 264.25 213.105469 263.851562 212.597656 C 263.453125 212.085938 262.921875 211.679688 262.257812 211.371094 C 261.59375 211.066406 260.875 210.914062 260.101562 210.914062 L 251.800781 210.914062 Z M 290.445312 229.445312 C 288.550781 229.445312 286.8125 229.164062 285.242188 228.605469 C 283.667969 228.042969 282.300781 227.257812 281.136719 226.25 C 279.972656 225.238281 279.074219 224.070312 278.441406 222.730469 C 277.808594 221.394531 277.492188 219.964844 277.492188 218.4375 C 277.492188 216.90625 277.808594 215.472656 278.441406 214.140625 C 279.074219 212.804688 279.972656 211.632812 281.136719 210.621094 C 282.300781 209.613281 283.667969 208.828125 285.242188 208.265625 C 286.816406 207.707031 288.550781 207.425781 290.445312 207.425781 C 292.324219 207.425781 294.050781 207.707031 295.621094 208.265625 C 297.195312 208.828125 298.5625 209.613281 299.726562 210.621094 C 300.890625 211.632812 301.792969 212.800781 302.4375 214.140625 C 303.078125 215.476562 303.402344 216.90625 303.402344 218.4375 C 303.402344 219.964844 303.078125 221.398438 302.4375 222.730469 C 301.792969 224.066406 300.890625 225.238281 299.726562 226.25 C 298.5625 227.257812 297.195312 228.042969 295.621094 228.605469 C 294.046875 229.164062 292.324219 229.445312 290.445312 229.445312 Z M 290.445312 226.234375 C 291.855469 226.234375 293.140625 226.035156 294.304688 225.636719 C 295.46875 225.238281 296.480469 224.691406 297.335938 223.988281 C 298.195312 223.28125 298.859375 222.457031 299.328125 221.511719 C 299.796875 220.5625 300.03125 219.539062 300.03125 218.4375 C 300.03125 217.335938 299.800781 216.3125 299.328125 215.363281 C 298.859375 214.414062 298.195312 213.585938 297.335938 212.886719 C 296.480469 212.183594 295.472656 211.628906 294.304688 211.234375 C 293.140625 210.835938 291.855469 210.636719 290.445312 210.636719 C 289.039062 210.636719 287.746094 210.835938 286.574219 211.234375 C 285.402344 211.632812 284.382812 212.183594 283.527344 212.886719 C 282.671875 213.589844 282.011719 214.414062 281.554688 215.363281 C 281.09375 216.308594 280.863281 217.332031 280.863281 218.4375 C 280.863281 219.535156 281.09375 220.558594 281.554688 221.511719 C 282.011719 222.457031 282.671875 223.285156 283.527344 223.988281 C 284.382812 224.691406 285.402344 225.242188 286.574219 225.636719 C 287.746094 226.035156 289.039062 226.234375 290.445312 226.234375 Z M 315.25 223.820312 L 315.25 220.054688 L 331.050781 207.730469 L 335.953125 207.730469 Z M 312.890625 229.140625 L 312.890625 207.734375 L 316.199219 207.734375 L 316.199219 229.140625 Z M 331.113281 229.140625 L 321.710938 217.550781 L 323.761719 214.921875 L 335.519531 229.140625 L 331.109375 229.140625 Z M 345.6875 229.140625 L 345.6875 207.734375 L 363.476562 207.734375 L 363.476562 210.914062 L 348.996094 210.914062 L 348.996094 225.957031 L 363.476562 225.957031 L 363.476562 229.136719 L 345.6875 229.136719 Z M 347.492188 219.75 L 347.492188 216.570312 L 361.796875 216.570312 L 361.796875 219.75 Z M 373.953125 229.140625 L 373.953125 207.734375 L 386.476562 207.734375 C 387.742188 207.734375 388.898438 208.023438 389.953125 208.605469 C 391.003906 209.1875 391.847656 209.976562 392.480469 210.976562 C 393.113281 211.976562 393.429688 213.085938 393.429688 214.3125 C 393.429688 215.59375 393.082031 216.761719 392.386719 217.8125 C 391.695312 218.863281 390.773438 219.699219 389.632812 220.320312 C 388.488281 220.945312 387.234375 221.253906 385.863281 221.253906 L 377.257812 221.253906 L 377.257812 229.144531 L 373.953125 229.144531 Z M 390.550781 229.140625 L 383.261719 219.476562 L 386.78125 218.710938 L 394.683594 229.171875 Z M 377.257812 218.070312 L 385.558594 218.070312 C 386.332031 218.070312 387.050781 217.898438 387.714844 217.550781 C 388.378906 217.203125 388.910156 216.746094 389.308594 216.175781 C 389.707031 215.605469 389.90625 214.984375 389.90625 214.3125 C 389.90625 213.679688 389.707031 213.105469 389.308594 212.597656 C 388.910156 212.085938 388.378906 211.683594 387.714844 211.375 C 387.050781 211.070312 386.332031 210.914062 385.558594 210.914062 L 377.257812 210.914062 Z M 419.761719 229.140625 L 419.761719 207.734375 L 430.601562 207.734375 C 432.5625 207.734375 434.292969 208.019531 435.792969 208.589844 C 437.292969 209.160156 438.554688 209.941406 439.574219 210.929688 C 440.59375 211.917969 441.359375 213.054688 441.871094 214.339844 C 442.378906 215.625 442.636719 216.992188 442.636719 218.4375 C 442.636719 219.90625 442.378906 221.285156 441.871094 222.582031 C 441.359375 223.875 440.59375 225.011719 439.574219 225.992188 C 438.554688 226.972656 437.292969 227.738281 435.792969 228.300781 C 434.292969 228.859375 432.5625 229.140625 430.601562 229.140625 Z M 423.070312 226.296875 L 422.980469 225.960938 L 430.449219 225.960938 C 431.980469 225.960938 433.292969 225.765625 434.386719 225.378906 C 435.480469 224.992188 436.371094 224.453125 437.066406 223.761719 C 437.757812 223.066406 438.273438 222.269531 438.609375 221.359375 C 438.949219 220.453125 439.117188 219.480469 439.117188 218.441406 C 439.117188 217.421875 438.949219 216.460938 438.609375 215.566406 C 438.273438 214.667969 437.757812 213.867188 437.066406 213.164062 C 436.371094 212.460938 435.480469 211.910156 434.386719 211.515625 C 433.292969 211.117188 431.980469 210.917969 430.449219 210.917969 L 422.886719 210.917969 L 423.070312 210.640625 L 423.070312 226.300781 Z M 452.128906 229.140625 L 452.128906 207.734375 L 469.921875 207.734375 L 469.921875 210.914062 L 455.4375 210.914062 L 455.4375 225.957031 L 469.921875 225.957031 L 469.921875 229.136719 L 452.128906 229.136719 Z M 453.9375 219.75 L 453.9375 216.570312 L 468.238281 216.570312 L 468.238281 219.75 Z M 504.308594 229.445312 C 502.777344 229.445312 501.367188 229.292969 500.070312 228.984375 C 498.769531 228.679688 497.585938 228.222656 496.515625 227.609375 C 495.445312 227 494.46875 226.222656 493.59375 225.285156 L 495.675781 222.535156 C 497.003906 223.898438 498.355469 224.898438 499.730469 225.53125 C 501.109375 226.164062 502.648438 226.476562 504.339844 226.476562 C 505.402344 226.476562 506.421875 226.351562 507.402344 226.09375 C 508.382812 225.839844 509.1875 225.453125 509.820312 224.933594 C 510.453125 224.414062 510.769531 223.753906 510.769531 222.960938 C 510.769531 222.449219 510.597656 222.03125 510.25 221.707031 C 509.902344 221.378906 509.449219 221.113281 508.890625 220.910156 C 508.328125 220.707031 507.71875 220.542969 507.066406 220.421875 C 506.414062 220.296875 505.785156 220.207031 505.183594 220.144531 C 504.582031 220.085938 504.078125 220.035156 503.667969 219.992188 C 502.300781 219.808594 501.058594 219.5625 499.945312 219.246094 C 498.835938 218.929688 497.886719 218.527344 497.101562 218.039062 C 496.316406 217.546875 495.710938 216.945312 495.292969 216.234375 C 494.875 215.519531 494.664062 214.695312 494.664062 213.757812 C 494.664062 212.757812 494.90625 211.867188 495.386719 211.082031 C 495.867188 210.296875 496.539062 209.632812 497.40625 209.09375 C 498.277344 208.554688 499.285156 208.140625 500.4375 207.855469 C 501.59375 207.570312 502.84375 207.425781 504.191406 207.425781 C 505.621094 207.425781 506.925781 207.570312 508.109375 207.855469 C 509.292969 208.140625 510.351562 208.5625 511.28125 209.125 C 512.210938 209.683594 512.980469 210.371094 513.589844 211.1875 L 511.386719 213.601562 C 510.8125 212.910156 510.152344 212.324219 509.394531 211.84375 C 508.640625 211.363281 507.816406 211.003906 506.929688 210.757812 C 506.042969 210.515625 505.097656 210.390625 504.097656 210.390625 C 502.996094 210.390625 502.003906 210.515625 501.128906 210.757812 C 500.25 211.003906 499.554688 211.34375 499.046875 211.78125 C 498.535156 212.222656 498.28125 212.753906 498.28125 213.386719 C 498.28125 213.9375 498.4375 214.40625 498.753906 214.792969 C 499.070312 215.183594 499.515625 215.503906 500.089844 215.757812 C 500.660156 216.015625 501.347656 216.222656 502.15625 216.386719 C 502.960938 216.550781 503.855469 216.691406 504.835938 216.8125 C 506.058594 216.957031 507.242188 217.140625 508.386719 217.363281 C 509.53125 217.589844 510.550781 217.902344 511.449219 218.296875 C 512.347656 218.695312 513.0625 219.230469 513.589844 219.902344 C 514.125 220.574219 514.386719 221.453125 514.386719 222.535156 C 514.386719 223.921875 513.972656 225.132812 513.132812 226.171875 C 512.292969 227.214844 511.125 228.019531 509.625 228.589844 C 508.125 229.160156 506.351562 229.445312 504.3125 229.445312 Z M 523.878906 229.140625 L 523.878906 207.734375 L 541.667969 207.734375 L 541.667969 210.914062 L 527.183594 210.914062 L 527.183594 225.957031 L 541.667969 225.957031 L 541.667969 229.136719 L 523.878906 229.136719 Z M 525.683594 219.75 L 525.683594 216.570312 L 539.984375 216.570312 L 539.984375 219.75 Z M 563.226562 229.445312 C 561.53125 229.445312 559.917969 229.210938 558.390625 228.742188 C 556.859375 228.269531 555.5 227.578125 554.316406 226.660156 C 553.132812 225.746094 552.199219 224.597656 551.515625 223.222656 C 550.828125 221.847656 550.488281 220.25 550.488281 218.4375 C 550.488281 216.90625 550.824219 215.480469 551.5 214.152344 C 552.171875 212.828125 553.117188 211.671875 554.332031 210.683594 C 555.546875 209.695312 556.957031 208.921875 558.558594 208.375 C 560.160156 207.824219 561.882812 207.546875 563.71875 207.546875 C 565.269531 207.546875 566.703125 207.71875 568.019531 208.066406 C 569.339844 208.414062 570.5 208.863281 571.511719 209.414062 C 572.523438 209.964844 573.3125 210.554688 573.882812 211.1875 L 571.742188 213.601562 C 571.003906 213.03125 570.214844 212.539062 569.367188 212.121094 C 568.519531 211.703125 567.621094 211.371094 566.671875 211.125 C 565.722656 210.882812 564.738281 210.757812 563.71875 210.757812 C 562.351562 210.757812 561.078125 210.953125 559.90625 211.339844 C 558.730469 211.726562 557.699219 212.265625 556.8125 212.960938 C 555.925781 213.652344 555.238281 214.464844 554.746094 215.390625 C 554.257812 216.320312 554.011719 217.332031 554.011719 218.433594 C 554.011719 219.777344 554.273438 220.945312 554.792969 221.9375 C 555.316406 222.925781 556.023438 223.734375 556.921875 224.367188 C 557.820312 225 558.835938 225.46875 559.96875 225.773438 C 561.101562 226.078125 562.28125 226.234375 563.503906 226.234375 C 564.75 226.234375 565.917969 226.117188 567.011719 225.882812 C 568.105469 225.648438 569.058594 225.3125 569.875 224.875 C 570.691406 224.433594 571.324219 223.917969 571.773438 223.328125 C 572.222656 222.738281 572.417969 222.097656 572.355469 221.402344 L 572.324219 221.007812 L 572.8125 221.679688 L 563.65625 221.679688 L 563.65625 218.46875 L 575.90625 218.46875 C 575.945312 218.773438 575.976562 219.015625 576 219.199219 C 576.019531 219.382812 576.027344 219.519531 576.027344 219.613281 C 576.027344 219.703125 576.027344 219.789062 576.027344 219.871094 C 576.027344 221.484375 575.714844 222.890625 575.09375 224.09375 C 574.472656 225.296875 573.59375 226.289062 572.460938 227.074219 C 571.328125 227.859375 569.980469 228.449219 568.417969 228.847656 C 566.855469 229.246094 565.128906 229.441406 563.230469 229.441406 Z M 595.6875 229.320312 C 593.523438 229.320312 591.636719 228.867188 590.023438 227.960938 C 588.410156 227.054688 587.152344 225.816406 586.253906 224.246094 C 585.355469 222.675781 584.90625 220.890625 584.90625 218.894531 L 584.90625 207.703125 L 588.214844 207.703125 L 588.214844 218.773438 C 588.214844 220.179688 588.546875 221.4375 589.210938 222.546875 C 589.875 223.660156 590.769531 224.53125 591.902344 225.164062 C 593.039062 225.792969 594.296875 226.109375 595.6875 226.109375 C 597.15625 226.109375 598.464844 225.792969 599.605469 225.164062 C 600.75 224.53125 601.652344 223.660156 602.316406 222.546875 C 602.980469 221.4375 603.3125 220.175781 603.3125 218.773438 L 603.3125 207.703125 L 606.464844 207.703125 L 606.464844 218.894531 C 606.464844 220.894531 606.019531 222.679688 605.121094 224.246094 C 604.222656 225.816406 602.964844 227.054688 601.351562 227.960938 C 599.738281 228.871094 597.851562 229.320312 595.6875 229.320312 Z M 617.246094 229.136719 L 617.246094 207.730469 L 629.769531 207.730469 C 631.035156 207.730469 632.195312 208.019531 633.246094 208.601562 C 634.296875 209.183594 635.140625 209.976562 635.773438 210.972656 C 636.40625 211.972656 636.722656 213.085938 636.722656 214.308594 C 636.722656 215.59375 636.375 216.761719 635.679688 217.8125 C 634.988281 218.863281 634.066406 219.699219 632.925781 220.316406 C 631.78125 220.941406 630.527344 221.25 629.15625 221.25 L 620.554688 221.25 L 620.554688 229.140625 L 617.246094 229.140625 Z M 633.84375 229.136719 L 626.554688 219.472656 L 630.074219 218.710938 L 637.976562 229.167969 Z M 620.554688 218.070312 L 628.851562 218.070312 C 629.625 218.070312 630.34375 217.894531 631.007812 217.546875 C 631.671875 217.203125 632.203125 216.746094 632.601562 216.171875 C 633 215.601562 633.199219 214.980469 633.199219 214.308594 C 633.199219 213.675781 633 213.105469 632.601562 212.597656 C 632.203125 212.085938 631.671875 211.679688 631.007812 211.371094 C 630.34375 211.066406 629.625 210.914062 628.851562 210.914062 L 620.554688 210.914062 Z M 659.199219 229.445312 C 657.300781 229.445312 655.5625 229.164062 653.992188 228.605469 C 652.417969 228.042969 651.050781 227.257812 649.886719 226.25 C 648.722656 225.238281 647.828125 224.070312 647.195312 222.730469 C 646.5625 221.394531 646.246094 219.964844 646.246094 218.4375 C 646.246094 216.90625 646.5625 215.472656 647.195312 214.140625 C 647.828125 212.804688 648.722656 211.632812 649.886719 210.621094 C 651.050781 209.613281 652.417969 208.828125 653.992188 208.265625 C 655.566406 207.707031 657.300781 207.425781 659.199219 207.425781 C 661.074219 207.425781 662.800781 207.707031 664.371094 208.265625 C 665.945312 208.828125 667.3125 209.613281 668.476562 210.621094 C 669.640625 211.632812 670.542969 212.800781 671.1875 214.140625 C 671.832031 215.476562 672.152344 216.90625 672.152344 218.4375 C 672.152344 219.964844 671.832031 221.398438 671.1875 222.730469 C 670.542969 224.066406 669.640625 225.238281 668.476562 226.25 C 667.3125 227.257812 665.945312 228.042969 664.371094 228.605469 C 662.800781 229.164062 661.074219 229.445312 659.199219 229.445312 Z M 659.199219 226.234375 C 660.605469 226.234375 661.890625 226.035156 663.058594 225.636719 C 664.21875 225.238281 665.230469 224.691406 666.089844 223.988281 C 666.945312 223.28125 667.609375 222.457031 668.078125 221.511719 C 668.546875 220.5625 668.78125 219.539062 668.78125 218.4375 C 668.78125 217.335938 668.550781 216.3125 668.078125 215.363281 C 667.609375 214.414062 666.945312 213.585938 666.089844 212.886719 C 665.230469 212.183594 664.222656 211.628906 663.058594 211.234375 C 661.890625 210.835938 660.605469 210.636719 659.199219 210.636719 C 657.789062 210.636719 656.5 210.835938 655.324219 211.234375 C 654.152344 211.632812 653.136719 212.183594 652.277344 212.886719 C 651.421875 213.589844 650.761719 214.414062 650.304688 215.363281 C 649.84375 216.308594 649.613281 217.332031 649.613281 218.4375 C 649.613281 219.535156 649.84375 220.558594 650.304688 221.511719 C 650.761719 222.457031 651.421875 223.285156 652.277344 223.988281 C 653.136719 224.691406 654.152344 225.242188 655.324219 225.636719 C 656.5 226.035156 657.789062 226.234375 659.199219 226.234375 Z M 690.707031 229.445312 C 689.175781 229.445312 687.761719 229.292969 686.464844 228.984375 C 685.167969 228.679688 683.984375 228.222656 682.914062 227.609375 C 681.84375 227 680.867188 226.222656 679.992188 225.285156 L 682.074219 222.535156 C 683.402344 223.898438 684.753906 224.898438 686.128906 225.53125 C 687.507812 226.164062 689.042969 226.476562 690.738281 226.476562 C 691.800781 226.476562 692.820312 226.351562 693.800781 226.09375 C 694.78125 225.839844 695.585938 225.453125 696.21875 224.933594 C 696.851562 224.414062 697.167969 223.753906 697.167969 222.960938 C 697.167969 222.449219 696.996094 222.03125 696.648438 221.707031 C 696.300781 221.378906 695.847656 221.113281 695.285156 220.910156 C 694.726562 220.707031 694.117188 220.542969 693.464844 220.421875 C 692.8125 220.296875 692.183594 220.207031 691.582031 220.144531 C 690.980469 220.085938 690.476562 220.035156 690.066406 219.992188 C 688.699219 219.808594 687.457031 219.5625 686.34375 219.246094 C 685.230469 218.929688 684.28125 218.527344 683.496094 218.039062 C 682.710938 217.546875 682.109375 216.945312 681.691406 216.234375 C 681.273438 215.519531 681.0625 214.695312 681.0625 213.757812 C 681.0625 212.757812 681.304688 211.867188 681.785156 211.082031 C 682.265625 210.296875 682.9375 209.632812 683.804688 209.09375 C 684.671875 208.554688 685.683594 208.140625 686.835938 207.855469 C 687.988281 207.570312 689.242188 207.425781 690.589844 207.425781 C 692.015625 207.425781 693.324219 207.570312 694.507812 207.855469 C 695.691406 208.140625 696.75 208.5625 697.679688 209.125 C 698.605469 209.683594 699.378906 210.371094 699.988281 211.1875 L 697.785156 213.601562 C 697.210938 212.910156 696.550781 212.324219 695.792969 211.84375 C 695.039062 211.363281 694.214844 211.003906 693.328125 210.757812 C 692.4375 210.515625 691.496094 210.390625 690.496094 210.390625 C 689.394531 210.390625 688.402344 210.515625 687.523438 210.757812 C 686.648438 211.003906 685.953125 211.34375 685.441406 211.78125 C 684.929688 212.222656 684.679688 212.753906 684.679688 213.386719 C 684.679688 213.9375 684.835938 214.40625 685.152344 214.792969 C 685.46875 215.183594 685.914062 215.503906 686.488281 215.757812 C 687.058594 216.015625 687.746094 216.222656 688.554688 216.386719 C 689.359375 216.550781 690.253906 216.691406 691.230469 216.8125 C 692.457031 216.957031 693.640625 217.140625 694.785156 217.363281 C 695.929688 217.589844 696.949219 217.902344 697.847656 218.296875 C 698.746094 218.695312 699.460938 219.230469 699.988281 219.902344 C 700.519531 220.574219 700.785156 221.453125 700.785156 222.535156 C 700.785156 223.921875 700.367188 225.132812 699.53125 226.171875 C 698.691406 227.214844 697.523438 228.019531 696.023438 228.589844 C 694.519531 229.160156 692.75 229.445312 690.710938 229.445312 Z M 690.707031 229.445312 " fill-opacity="1" fill-rule="nonzero"/></g><g clip-path="url(#9c5d57eab7)"><g clip-path="url(#d323d08086)"><path fill="#ffffff" d="M 27 40.296875 L 185.589844 40.296875 L 185.589844 198.890625 L 27 198.890625 Z M 27 40.296875 " fill-opacity="1" fill-rule="nonzero"/></g></g><g clip-path="url(#ed9043ab5b)"><path fill="#000000" d="M 106.472656 44.703125 C 127.425781 44.703125 146.371094 53.292969 159.988281 67.136719 C 159.855469 73.21875 157.808594 80.59375 154.363281 88.648438 C 146.421875 107.21875 131.21875 128.78125 114.632812 146.695312 C 98.207031 164.433594 80.601562 178.472656 67.652344 182.234375 C 66.953125 182.4375 66.269531 182.605469 65.609375 182.746094 C 45.019531 169.359375 31.402344 146.15625 31.402344 119.769531 C 31.402344 78.3125 65.011719 44.703125 106.46875 44.703125 Z M 167.105469 75.511719 C 176.179688 87.921875 181.539062 103.21875 181.539062 119.769531 C 181.539062 161.226562 147.929688 194.835938 106.472656 194.835938 C 95.339844 194.835938 84.773438 192.410156 75.273438 188.0625 C 88.820312 182.203125 105.316406 168.671875 120.574219 152.191406 C 137.753906 133.636719 153.539062 111.222656 161.832031 91.824219 C 164.273438 86.121094 166.078125 80.628906 167.105469 75.511719 Z M 167.105469 75.511719 " fill-opacity="1" fill-rule="evenodd"/></g><path fill="#5ce1e6" d="M 102.273438 64.648438 C 105.644531 62.96875 109.660156 62.660156 113.417969 63.519531 C 117.160156 64.375 120.679688 66.402344 123.085938 69.390625 C 123.742188 70.207031 124.285156 71.054688 124.714844 71.914062 C 125.9375 74.367188 126.261719 76.960938 125.753906 79.382812 C 125.242188 81.816406 123.898438 84.042969 121.785156 85.746094 C 121.070312 86.320312 120.273438 86.832031 119.398438 87.269531 C 116.023438 88.949219 112.011719 89.257812 108.253906 88.398438 C 104.507812 87.542969 100.988281 85.519531 98.585938 82.527344 C 97.925781 81.710938 97.386719 80.867188 96.957031 80.007812 C 95.734375 77.554688 95.410156 74.957031 95.917969 72.535156 C 96.429688 70.101562 97.773438 67.875 99.886719 66.175781 C 100.601562 65.601562 101.398438 65.085938 102.273438 64.648438 Z M 112.542969 67.335938 C 109.640625 66.671875 106.574219 66.898438 104.027344 68.167969 C 103.394531 68.480469 102.832031 68.84375 102.339844 69.238281 C 100.949219 70.355469 100.070312 71.792969 99.746094 73.335938 C 99.421875 74.890625 99.648438 76.601562 100.472656 78.253906 C 100.785156 78.875 101.175781 79.488281 101.648438 80.078125 C 103.488281 82.359375 106.210938 83.917969 109.128906 84.585938 C 112.027344 85.246094 115.097656 85.023438 117.644531 83.753906 C 118.277344 83.4375 118.839844 83.078125 119.332031 82.683594 C 120.722656 81.5625 121.601562 80.128906 121.925781 78.585938 C 122.25 77.03125 122.019531 75.320312 121.195312 73.667969 C 120.886719 73.042969 120.496094 72.433594 120.023438 71.84375 C 118.183594 69.558594 115.457031 68.003906 112.539062 67.335938 Z M 112.542969 67.335938 " fill-opacity="1" fill-rule="nonzero"/><path fill="#ff66c4" d="M 96.425781 57.382812 C 102.050781 54.582031 108.757812 54.070312 115.046875 55.507812 C 121.328125 56.941406 127.21875 60.332031 131.238281 65.324219 C 132.328125 66.675781 133.222656 68.078125 133.933594 69.5 C 135.933594 73.511719 136.46875 77.746094 135.644531 81.683594 C 134.816406 85.628906 132.628906 89.25 129.183594 92.019531 C 128.007812 92.964844 126.691406 93.808594 125.242188 94.53125 C 119.621094 97.335938 112.914062 97.847656 106.621094 96.40625 C 100.34375 94.972656 94.449219 91.585938 90.433594 86.589844 C 89.34375 85.238281 88.449219 83.839844 87.738281 82.417969 C 85.738281 78.402344 85.203125 74.167969 86.027344 70.234375 C 86.855469 66.285156 89.042969 62.667969 92.488281 59.894531 C 93.664062 58.949219 94.976562 58.105469 96.429688 57.382812 Z M 114.171875 59.324219 C 108.738281 58.082031 102.976562 58.507812 98.179688 60.902344 C 96.972656 61.5 95.894531 62.195312 94.941406 62.960938 C 92.21875 65.152344 90.492188 67.976562 89.855469 71.035156 C 89.210938 74.101562 89.652344 77.449219 91.253906 80.664062 C 91.84375 81.847656 92.589844 83.015625 93.496094 84.140625 C 96.949219 88.429688 102.046875 91.347656 107.496094 92.59375 C 112.929688 93.835938 118.691406 93.410156 123.492188 91.015625 C 124.695312 90.417969 125.777344 89.722656 126.726562 88.957031 C 129.453125 86.765625 131.175781 83.941406 131.816406 80.882812 C 132.460938 77.8125 132.019531 74.46875 130.414062 71.253906 C 129.824219 70.066406 129.078125 68.902344 128.175781 67.777344 C 124.722656 63.488281 119.625 60.570312 114.171875 59.324219 Z M 114.171875 59.324219 " fill-opacity="1" fill-rule="nonzero"/></svg>