<?xml version="1.0" standalone="no"?>
<!DOCTYPE svg PUBLIC "-//W3C//DTD SVG 1.1//EN" "http://www.w3.org/Graphics/SVG/1.1/DTD/svg11.dtd">
<svg xmlns="http://www.w3.org/2000/svg" xmlns:xlink="http://www.w3.org/1999/xlink" width="150" zoomAndPan="magnify" viewBox="0 0 150 149.999998" height="150" preserveAspectRatio="xMidYMid meet" version="1.0"><defs><clipPath id="62825cc175"><path d="M 0.96875 0.96875 L 149.03125 0.96875 L 149.03125 149.03125 L 0.96875 149.03125 Z M 0.96875 0.96875 " clip-rule="nonzero"/></clipPath><clipPath id="0b759b7da1"><path d="M 75 0.96875 C 34.113281 0.96875 0.96875 34.113281 0.96875 75 C 0.96875 115.886719 34.113281 149.03125 75 149.03125 C 115.886719 149.03125 149.03125 115.886719 149.03125 75 C 149.03125 34.113281 115.886719 0.96875 75 0.96875 " clip-rule="nonzero"/></clipPath><clipPath id="a8a723d251"><path d="M 5.082031 5.082031 L 144.8125 5.082031 L 144.8125 144.8125 L 5.082031 144.8125 Z M 5.082031 5.082031 " clip-rule="nonzero"/></clipPath></defs><g clip-path="url(#62825cc175)"><g clip-path="url(#0b759b7da1)"><path fill="#ffffff" d="M 0.96875 0.96875 L 149.03125 0.96875 L 149.03125 149.03125 L 0.96875 149.03125 Z M 0.96875 0.96875 " fill-opacity="1" fill-rule="nonzero"/><path stroke-linecap="butt" transform="matrix(0.925368, 0, 0, 0.925368, 0.970589, 0.97059)" fill="none" stroke-linejoin="miter" d="M 80.000008 -0.00198866 C 35.815706 -0.00198866 -0.00198785 35.815705 -0.00198785 80.000007 C -0.00198785 124.184309 35.815706 160.002003 80.000008 160.002003 C 124.18431 160.002003 160.002004 124.184309 160.002004 80.000007 C 160.002004 35.815705 124.18431 -0.00198866 80.000008 -0.00198866 " stroke="#000000" stroke-width="1.620977" stroke-opacity="1" stroke-miterlimit="4"/></g></g><g clip-path="url(#a8a723d251)"><path fill="#000000" d="M 74.949219 5.082031 C 94.449219 5.082031 112.085938 13.078125 124.757812 25.964844 C 124.632812 31.625 122.726562 38.488281 119.523438 45.984375 C 112.132812 63.265625 97.980469 83.335938 82.542969 100.007812 C 67.257812 116.519531 50.871094 129.582031 38.820312 133.085938 C 38.167969 133.273438 37.53125 133.429688 36.914062 133.5625 C 17.753906 121.101562 5.082031 99.507812 5.082031 74.949219 C 5.082031 36.363281 36.363281 5.082031 74.945312 5.082031 Z M 131.378906 33.757812 C 139.824219 45.308594 144.8125 59.542969 144.8125 74.949219 C 144.8125 113.53125 113.53125 144.8125 74.949219 144.8125 C 64.585938 144.8125 54.753906 142.554688 45.910156 138.507812 C 58.519531 133.054688 73.871094 120.460938 88.074219 105.121094 C 104.0625 87.855469 118.753906 66.992188 126.472656 48.941406 C 128.746094 43.628906 130.421875 38.519531 131.378906 33.757812 Z M 131.378906 33.757812 " fill-opacity="1" fill-rule="evenodd"/></g><path fill="#5ce1e6" d="M 71.039062 23.648438 C 74.179688 22.082031 77.914062 21.796875 81.414062 22.597656 C 84.898438 23.394531 88.171875 25.277344 90.410156 28.058594 C 91.023438 28.820312 91.527344 29.609375 91.925781 30.40625 C 93.0625 32.691406 93.367188 35.105469 92.894531 37.359375 C 92.417969 39.625 91.167969 41.699219 89.199219 43.28125 C 88.535156 43.816406 87.792969 44.292969 86.976562 44.699219 C 83.839844 46.261719 80.105469 46.550781 76.605469 45.75 C 73.121094 44.957031 69.84375 43.070312 67.609375 40.289062 C 66.996094 39.527344 66.492188 38.742188 66.09375 37.941406 C 64.957031 35.660156 64.652344 33.242188 65.125 30.988281 C 65.601562 28.722656 66.851562 26.648438 68.820312 25.066406 C 69.484375 24.53125 70.226562 24.054688 71.042969 23.648438 Z M 80.597656 26.148438 C 77.898438 25.53125 75.042969 25.742188 72.671875 26.921875 C 72.085938 27.214844 71.558594 27.550781 71.101562 27.917969 C 69.808594 28.960938 68.988281 30.292969 68.6875 31.730469 C 68.386719 33.179688 68.597656 34.769531 69.367188 36.308594 C 69.65625 36.890625 70.019531 37.457031 70.460938 38.003906 C 72.171875 40.132812 74.707031 41.578125 77.421875 42.199219 C 80.117188 42.820312 82.976562 42.609375 85.347656 41.425781 C 85.933594 41.132812 86.460938 40.800781 86.917969 40.429688 C 88.210938 39.386719 89.03125 38.054688 89.332031 36.617188 C 89.632812 35.171875 89.421875 33.578125 88.652344 32.039062 C 88.363281 31.460938 88 30.890625 87.558594 30.34375 C 85.847656 28.214844 83.3125 26.769531 80.597656 26.148438 Z M 80.597656 26.148438 " fill-opacity="1" fill-rule="nonzero"/><path fill="#ff66c4" d="M 65.597656 16.886719 C 70.832031 14.277344 77.074219 13.800781 82.929688 15.140625 C 88.773438 16.476562 94.257812 19.628906 98 24.277344 C 99.011719 25.535156 99.847656 26.835938 100.507812 28.160156 C 102.371094 31.894531 102.867188 35.835938 102.101562 39.5 C 101.332031 43.175781 99.292969 46.542969 96.085938 49.121094 C 94.992188 50 93.769531 50.789062 92.417969 51.460938 C 87.183594 54.070312 80.945312 54.542969 75.085938 53.203125 C 69.246094 51.867188 63.757812 48.71875 60.019531 44.070312 C 59.007812 42.808594 58.171875 41.507812 57.511719 40.183594 C 55.652344 36.449219 55.152344 32.507812 55.917969 28.84375 C 56.691406 25.171875 58.726562 21.804688 61.933594 19.222656 C 63.027344 18.34375 64.25 17.554688 65.601562 16.882812 Z M 82.117188 18.691406 C 77.058594 17.535156 71.695312 17.933594 67.230469 20.160156 C 66.109375 20.71875 65.101562 21.363281 64.21875 22.074219 C 61.683594 24.113281 60.078125 26.746094 59.480469 29.589844 C 58.882812 32.445312 59.292969 35.558594 60.785156 38.550781 C 61.332031 39.65625 62.027344 40.738281 62.871094 41.785156 C 66.085938 45.78125 70.832031 48.496094 75.902344 49.65625 C 80.957031 50.8125 86.320312 50.414062 90.789062 48.1875 C 91.910156 47.628906 92.917969 46.984375 93.800781 46.273438 C 96.335938 44.230469 97.941406 41.601562 98.535156 38.753906 C 99.136719 35.898438 98.726562 32.785156 97.234375 29.792969 C 96.683594 28.691406 95.988281 27.605469 95.148438 26.558594 C 91.933594 22.566406 87.1875 19.851562 82.117188 18.691406 Z M 82.117188 18.691406 " fill-opacity="1" fill-rule="nonzero"/></svg>